<svg xmlns="http://www.w3.org/2000/svg" xmlns:xlink="http://www.w3.org/1999/xlink" width="255" zoomAndPan="magnify" viewBox="0 0 191.25 190.499993" height="254" preserveAspectRatio="xMidYMid meet" version="1.0"><defs><clipPath id="5fa549a913"><path d="M 0 0.121094 L 190.503906 0.121094 L 190.503906 189.488281 L 0 189.488281 Z M 0 0.121094 " clip-rule="nonzero"/></clipPath><clipPath id="1359a7d8c0"><path d="M 190.488281 39.75 C 190.011719 20.394531 174.332031 6.492188 147.46875 1.605469 C 129.230469 -1.714844 109.40625 0.582031 91.652344 8.070312 C 84.390625 11.132812 77.761719 14.953125 71.953125 19.425781 C 59.652344 28.898438 50.035156 40.917969 39.382812 56.054688 C 22.484375 80.066406 0.015625 116.785156 0 158.28125 C -0.00390625 163.351562 0.328125 169.964844 2.949219 176.148438 C 5.59375 182.382812 9.867188 186.636719 15.3125 188.441406 C 16.429688 188.8125 17.601562 189.078125 18.792969 189.234375 C 19.648438 189.34375 20.507812 189.394531 21.375 189.394531 C 30.304688 189.394531 39.535156 183.789062 45.113281 177.769531 C 53.53125 168.679688 75.300781 135.605469 85.050781 118.835938 C 86.835938 115.765625 89.972656 113.957031 93.65625 113.878906 C 94.429688 113.859375 95.28125 113.847656 96.222656 113.839844 L 96.816406 113.835938 C 107.570312 113.628906 118.304688 111.703125 128.722656 108.117188 C 137.585938 105.066406 145.988281 100.878906 153.695312 95.675781 C 167.71875 86.210938 185.363281 70.421875 189.785156 48.980469 C 190.46875 45.660156 190.546875 42.128906 190.488281 39.75 Z M 126.253906 61.46875 C 112.183594 66.339844 99.609375 66.914062 98.167969 62.753906 C 96.730469 58.597656 106.96875 51.277344 121.039062 46.40625 C 135.113281 41.535156 147.6875 40.957031 149.128906 45.117188 C 150.566406 49.277344 140.328125 56.597656 126.253906 61.46875 Z M 126.253906 61.46875 " clip-rule="nonzero"/></clipPath><clipPath id="a574a20151"><path d="M 0 0.121094 L 190.503906 0.121094 L 190.503906 189.460938 L 0 189.460938 Z M 0 0.121094 " clip-rule="nonzero"/></clipPath><clipPath id="e8dc0b63a3"><path d="M 190.488281 39.75 C 190.011719 20.394531 174.332031 6.492188 147.46875 1.605469 C 129.230469 -1.714844 109.40625 0.582031 91.652344 8.070312 C 84.390625 11.132812 77.761719 14.953125 71.953125 19.425781 C 59.652344 28.898438 50.035156 40.917969 39.382812 56.054688 C 22.484375 80.066406 0.015625 116.785156 0 158.28125 C -0.00390625 163.351562 0.328125 169.964844 2.949219 176.148438 C 5.59375 182.382812 9.867188 186.636719 15.3125 188.441406 C 16.429688 188.8125 17.601562 189.078125 18.792969 189.234375 C 19.648438 189.34375 20.507812 189.394531 21.375 189.394531 C 30.304688 189.394531 39.535156 183.789062 45.113281 177.769531 C 53.53125 168.679688 75.300781 135.605469 85.050781 118.835938 C 86.835938 115.765625 89.972656 113.957031 93.65625 113.878906 C 94.429688 113.859375 95.28125 113.847656 96.222656 113.839844 L 96.816406 113.835938 C 107.570312 113.628906 118.304688 111.703125 128.722656 108.117188 C 137.585938 105.066406 145.988281 100.878906 153.695312 95.675781 C 167.71875 86.210938 185.363281 70.421875 189.785156 48.980469 C 190.46875 45.660156 190.546875 42.128906 190.488281 39.75 Z M 126.253906 61.46875 C 112.183594 66.339844 99.609375 66.914062 98.167969 62.753906 C 96.730469 58.597656 106.96875 51.277344 121.039062 46.40625 C 135.113281 41.535156 147.6875 40.957031 149.128906 45.117188 C 150.566406 49.277344 140.328125 56.597656 126.253906 61.46875 Z M 126.253906 61.46875 " clip-rule="nonzero"/></clipPath><clipPath id="1beff69d4d"><rect x="0" width="191" y="0" height="190"/></clipPath><clipPath id="061738bb87"><path d="M 82 26 L 167 26 L 167 77 L 82 77 Z M 82 26 " clip-rule="nonzero"/></clipPath><clipPath id="3d2e449e9c"><path d="M 76.332031 42.164062 L 159.421875 17.878906 L 172.132812 61.375 L 89.046875 85.660156 Z M 76.332031 42.164062 " clip-rule="nonzero"/></clipPath><clipPath id="c7c7188abb"><path d="M 117.875 30.019531 C 140.820312 23.316406 162.261719 27.597656 165.765625 39.589844 C 169.269531 51.582031 153.511719 66.734375 130.566406 73.441406 C 107.625 80.144531 86.183594 75.867188 82.679688 63.875 C 79.171875 51.882812 94.933594 36.726562 117.875 30.019531 Z M 117.875 30.019531 " clip-rule="nonzero"/></clipPath><clipPath id="c91c82b071"><path d="M 0 0 L 85 0 L 85 51 L 0 51 Z M 0 0 " clip-rule="nonzero"/></clipPath><clipPath id="eb96d936bb"><path d="M -5.667969 16.164062 L 77.421875 -8.121094 L 90.132812 35.375 L 7.046875 59.660156 Z M -5.667969 16.164062 " clip-rule="nonzero"/></clipPath><clipPath id="5606a46d62"><path d="M 35.875 4.019531 C 58.820312 -2.683594 80.261719 1.597656 83.765625 13.589844 C 87.269531 25.582031 71.511719 40.734375 48.566406 47.441406 C 25.625 54.144531 4.183594 49.867188 0.679688 37.875 C -2.828125 25.882812 12.933594 10.726562 35.875 4.019531 Z M 35.875 4.019531 " clip-rule="nonzero"/></clipPath><clipPath id="f1f74a62f4"><rect x="0" width="85" y="0" height="51"/></clipPath></defs><g clip-path="url(#5fa549a913)"><g clip-path="url(#1359a7d8c0)"><g transform="matrix(1, 0, 0, 1, 0, -0.00000000000001836)"><g clip-path="url(#1beff69d4d)"><g clip-path="url(#a574a20151)"><g clip-path="url(#e8dc0b63a3)"><path fill="#017ec3" d="M 0 0.121094 L 190.503906 0.121094 L 190.503906 189.488281 L 0 189.488281 Z M 0 0.121094 " fill-opacity="1" fill-rule="nonzero"/></g></g></g></g></g></g><g clip-path="url(#061738bb87)"><g clip-path="url(#3d2e449e9c)"><g clip-path="url(#c7c7188abb)"><g transform="matrix(1, 0, 0, 1, 82, 26)"><g clip-path="url(#f1f74a62f4)"><g clip-path="url(#c91c82b071)"><g clip-path="url(#eb96d936bb)"><g clip-path="url(#5606a46d62)"><path fill="#01b8ea" d="M -5.667969 16.164062 L 77.421875 -8.121094 L 90.109375 35.289062 L 7.019531 59.574219 Z M -5.667969 16.164062 " fill-opacity="1" fill-rule="nonzero"/></g></g></g></g></g></g></g></g></svg>